<svg xmlns="http://www.w3.org/2000/svg" xmlns:xlink="http://www.w3.org/1999/xlink" width="832" zoomAndPan="magnify" viewBox="0 0 624 465.749988" height="621" preserveAspectRatio="xMidYMid meet" version="1.0"><defs><clipPath id="b5650ef624"><path d="M 49 159 L 605 159 L 605 325 L 49 325 Z M 49 159 " clip-rule="nonzero"/></clipPath><clipPath id="0de836f43e"><path d="M 1.058594 198.878906 L 521.335938 0.121094 L 622.988281 266.214844 L 102.710938 464.972656 Z M 1.058594 198.878906 " clip-rule="nonzero"/></clipPath><clipPath id="6708fc18d0"><path d="M 1.058594 198.878906 L 521.335938 0.121094 L 622.988281 266.214844 L 102.710938 464.972656 Z M 1.058594 198.878906 " clip-rule="nonzero"/></clipPath><clipPath id="bc62c67bfd"><path d="M 48 159 L 604 159 L 604 325 L 48 325 Z M 48 159 " clip-rule="nonzero"/></clipPath><clipPath id="99b7546229"><path d="M 0.167969 198.878906 L 520.445312 0.121094 L 622.097656 266.214844 L 101.820312 464.972656 Z M 0.167969 198.878906 " clip-rule="nonzero"/></clipPath><clipPath id="0dc3b2b9f7"><path d="M 0.167969 198.878906 L 520.445312 0.121094 L 622.097656 266.214844 L 101.820312 464.972656 Z M 0.167969 198.878906 " clip-rule="nonzero"/></clipPath></defs><g clip-path="url(#b5650ef624)"><g clip-path="url(#0de836f43e)"><g clip-path="url(#6708fc18d0)"><path fill="#ffffff" d="M 600.214844 246.183594 C 595.890625 255.851562 589.355469 265.179688 583.421875 274.128906 C 581.230469 277.339844 578.964844 280.730469 576.773438 283.945312 L 574.3125 284.882812 C 576.640625 280.875 579.332031 277.027344 582.019531 273.179688 C 588.214844 264.132812 594.128906 254.742188 598.8125 245.234375 C 604.515625 232.957031 604.582031 222.242188 598.582031 215.476562 C 592.203125 208.109375 580.046875 206.21875 565.996094 210.253906 C 525.417969 222.191406 489.046875 243.210938 453.847656 263.789062 C 438.300781 272.84375 422.203125 282.410156 405.792969 290.757812 C 346.238281 321.824219 287.542969 319.003906 245.03125 283.125 C 230.816406 271.179688 218.527344 253.007812 205.355469 233.6875 C 182.089844 199.214844 157.859375 163.777344 120.738281 160.285156 C 108.621094 159.273438 100.230469 162.183594 96.152344 169.382812 C 88.953125 181.636719 96.4375 205.503906 107.703125 221.394531 C 126.585938 247.890625 138.804688 283.761719 115.851562 305.300781 C 104.582031 315.839844 88.683594 317.757812 73.402344 319.734375 C 70.691406 320.027344 67.984375 320.320312 65.195312 320.789062 C 59.566406 321.605469 54.265625 322.886719 49.597656 324.667969 L 49.105469 323.375 C 53.898438 321.542969 59.070312 320.308594 64.957031 319.394531 C 67.570312 318.84375 70.328125 318.679688 73.296875 318.289062 C 88.449219 316.363281 103.988281 314.285156 114.9375 304.460938 C 137.441406 283.6875 125.308594 248.824219 106.578125 222.71875 C 95.128906 206.746094 87.136719 182.328125 94.816406 169.003906 C 99.1875 161.394531 107.996094 158.027344 120.960938 159.3125 C 158.957031 162.761719 183.207031 198.640625 206.832031 233.273438 C 219.824219 252.511719 232.191406 270.507812 246.355469 282.320312 C 288.363281 317.652344 346.308594 320.460938 405.574219 289.800781 C 422.015625 281.144531 437.953125 271.9375 453.628906 262.832031 C 488.878906 242.386719 525.199219 221.234375 566.039062 209.195312 C 580.738281 204.917969 593.5625 207 600.234375 215.140625 C 606.023438 222.132812 606.109375 233.238281 600.214844 246.183594 Z M 600.214844 246.183594 " fill-opacity="1" fill-rule="nonzero"/></g></g></g><g clip-path="url(#bc62c67bfd)"><g clip-path="url(#99b7546229)"><g clip-path="url(#0dc3b2b9f7)"><path fill="#ffffff" d="M 599.324219 246.183594 C 595 255.851562 588.464844 265.179688 582.53125 274.128906 C 580.339844 277.339844 578.074219 280.730469 575.886719 283.945312 L 573.421875 284.882812 C 575.753906 280.875 578.441406 277.027344 581.128906 273.179688 C 587.324219 264.132812 593.238281 254.742188 597.921875 245.234375 C 603.625 232.957031 603.691406 222.242188 597.691406 215.476562 C 591.3125 208.109375 579.15625 206.21875 565.105469 210.253906 C 524.527344 222.191406 488.15625 243.210938 452.957031 263.789062 C 437.410156 272.84375 421.3125 282.410156 404.902344 290.757812 C 345.347656 321.824219 286.652344 319.003906 244.140625 283.125 C 229.925781 271.179688 217.636719 253.007812 204.464844 233.6875 C 181.199219 199.214844 156.96875 163.777344 119.851562 160.285156 C 107.730469 159.273438 99.339844 162.183594 95.261719 169.382812 C 88.0625 181.636719 95.546875 205.503906 106.816406 221.394531 C 125.695312 247.890625 137.914062 283.761719 114.960938 305.300781 C 103.691406 315.839844 87.792969 317.757812 72.511719 319.734375 C 69.804688 320.027344 67.09375 320.320312 64.304688 320.789062 C 58.675781 321.605469 53.375 322.886719 48.710938 324.667969 L 48.214844 323.375 C 53.007812 321.542969 58.179688 320.308594 64.066406 319.394531 C 66.679688 318.84375 69.4375 318.679688 72.40625 318.289062 C 87.558594 316.363281 103.097656 314.285156 114.046875 304.460938 C 136.550781 283.6875 124.421875 248.824219 105.6875 222.71875 C 94.238281 206.746094 86.25 182.328125 93.925781 169.003906 C 98.296875 161.394531 107.109375 158.027344 120.070312 159.3125 C 158.066406 162.761719 182.316406 198.640625 205.941406 233.273438 C 218.933594 252.511719 231.300781 270.507812 245.464844 282.320312 C 287.472656 317.652344 345.417969 320.460938 404.683594 289.800781 C 421.128906 281.144531 437.0625 271.9375 452.738281 262.832031 C 487.992188 242.386719 524.308594 221.234375 565.148438 209.195312 C 579.847656 204.917969 592.671875 207 599.34375 215.140625 C 605.136719 222.132812 605.21875 233.238281 599.324219 246.183594 Z M 599.324219 246.183594 " fill-opacity="1" fill-rule="nonzero"/></g></g></g></svg>