<svg xmlns="http://www.w3.org/2000/svg" xmlns:xlink="http://www.w3.org/1999/xlink" width="232" zoomAndPan="magnify" viewBox="0 0 174 70.499998" height="94" preserveAspectRatio="xMidYMid meet" version="1.0"><defs><filter x="0%" y="0%" width="100%" height="100%" id="8466093c02"><feColorMatrix values="0 0 0 0 1 0 0 0 0 1 0 0 0 0 1 0 0 0 1 0" color-interpolation-filters="sRGB"/></filter><mask id="1b4a569106"><g filter="url(#8466093c02)"><rect x="-17.4" width="208.8" fill="#000000" y="-7.05" height="84.599998" fill-opacity="0.3"/></g></mask><clipPath id="c3d0fe6b52"><path d="M 1 0.0078125 L 171.671875 0.0078125 L 171.671875 57.917969 L 1 57.917969 Z M 1 0.0078125 " clip-rule="nonzero"/></clipPath><clipPath id="2cde16a224"><rect x="0" width="172" y="0" height="58"/></clipPath></defs><g mask="url(#1b4a569106)"><g transform="matrix(1, 0, 0, 1, 1, 10)"><g clip-path="url(#2cde16a224)"><g clip-path="url(#c3d0fe6b52)"><path fill="#ffffff" d="M 158.121094 29.875 C 163.292969 29.789062 169.472656 30.789062 171.320312 35.640625 C 172.179688 37.898438 168.9375 39.292969 167.882812 36.945312 C 161.328125 22.367188 65.453125 59.933594 59.386719 57.601562 C 45.699219 52.34375 127.550781 24.753906 133.179688 9.019531 C 135.308594 3.070312 116.261719 2.890625 95.878906 6.890625 C 61.609375 13.617188 21.4375 30.847656 4.203125 41.09375 C 1.546875 42.671875 -0.277344 39.46875 2.195312 37.972656 C 34.996094 18.164062 119.441406 -10 135.03125 3.777344 C 148.867188 16.007812 93.300781 38.351562 68.015625 52.125 C 59.457031 56.785156 129.199219 30.355469 158.121094 29.875 Z M 158.121094 29.875 " fill-opacity="1" fill-rule="nonzero"/></g></g></g></g></svg>